<svg xmlns="http://www.w3.org/2000/svg" width="16.31" height="18.639" viewBox="0 0 16.31 18.639"><defs><style>.a{fill:#ccccd8;}</style></defs><path class="a" d="M0,16.892a1.748,1.748,0,0,0,1.747,1.747H14.562a1.748,1.748,0,0,0,1.747-1.747V6.99H0ZM11.65,9.757a.438.438,0,0,1,.437-.437h1.456a.438.438,0,0,1,.437.437v1.456a.438.438,0,0,1-.437.437H12.087a.438.438,0,0,1-.437-.437Zm0,4.66a.438.438,0,0,1,.437-.437h1.456a.438.438,0,0,1,.437.437v1.456a.438.438,0,0,1-.437.437H12.087a.438.438,0,0,1-.437-.437ZM6.99,9.757a.438.438,0,0,1,.437-.437H8.883a.438.438,0,0,1,.437.437v1.456a.438.438,0,0,1-.437.437H7.427a.438.438,0,0,1-.437-.437Zm0,4.66a.438.438,0,0,1,.437-.437H8.883a.438.438,0,0,1,.437.437v1.456a.438.438,0,0,1-.437.437H7.427a.438.438,0,0,1-.437-.437ZM2.33,9.757a.438.438,0,0,1,.437-.437H4.223a.438.438,0,0,1,.437.437v1.456a.438.438,0,0,1-.437.437H2.767a.438.438,0,0,1-.437-.437Zm0,4.66a.438.438,0,0,1,.437-.437H4.223a.438.438,0,0,1,.437.437v1.456a.438.438,0,0,1-.437.437H2.767a.438.438,0,0,1-.437-.437ZM14.562,2.33H12.815V.582A.584.584,0,0,0,12.232,0H11.067a.584.584,0,0,0-.582.582V2.33H5.825V.582A.584.584,0,0,0,5.242,0H4.077a.584.584,0,0,0-.582.582V2.33H1.747A1.748,1.748,0,0,0,0,4.077V5.825H16.31V4.077A1.748,1.748,0,0,0,14.562,2.33Z"/></svg>